<svg xmlns="http://www.w3.org/2000/svg" width="230" height="63" fill="none">
  <g fill="#000" clip-path="url(#a)">
    <path d="M156.073 63h-1.776V52.517h2.757l3.164 6.582 3.164-6.582h2.746V63h-1.775v-8.188l-3.665 7.27h-.992l-3.644-7.27V63zm26.605-10.483v1.67h-5.597v2.774h5.033v1.575h-5.033v2.806h5.785v1.668h-7.549V52.528h7.372zm12.311 0c1.879 0 3.331.46 4.333 1.377 1.013.918 1.514 2.19 1.514 3.818 0 1.627-.491 2.92-1.472 3.87-.982.949-2.485 1.428-4.5 1.428h-3.488V52.528h3.602zm4.062 5.236c0-2.398-1.379-3.598-4.125-3.598h-1.775v7.187h1.963c1.274 0 2.245-.303 2.924-.908s1.013-1.502 1.013-2.68m10.327-5.236h1.775V63h-1.775zm12.425 8.105-1.054 2.388h-1.89l4.625-10.482h1.89L230 63.01h-1.89l-1.055-2.388zm4.532-1.638-1.911-4.318-1.911 4.318h3.822"/>
    <path fill-rule="evenodd" d="M112.374 30.979c-.011-6.561-1.337-11.495-3.968-14.79-2.642-3.286-6.505-4.934-11.6-4.934-3.405.02-6.297.72-8.688 2.086-2.381 1.376-4.198 3.316-5.461 5.84-1.264 2.514-1.89 5.477-1.9 8.908 0 5.998 1.378 10.504 4.145 13.508 2.767 3.014 6.912 4.537 12.436 4.537 2.37-.01 4.532-.428 6.474-1.241a13.86 13.86 0 0 0 4.991-3.61c1.378-1.585 2.412-3.514 3.101-5.778h-9.032a4.2 4.2 0 0 1-1.18 1.972c-.574.553-1.274.98-2.088 1.283a7.9 7.9 0 0 1-2.663.448c-1.451-.01-2.704-.344-3.77-1.022-1.075-.678-1.931-1.627-2.558-2.848-.616-1.22-.981-2.67-1.075-4.339h22.846zM230 12.12l-8.176 12.517-5.294-8.105 2.882-4.412zm-32.223 0 10.817 16.564-10.817 16.563h10.588l5.523-8.459 5.524 8.46H230L208.365 12.12zM31.169 21.445c-.617-2.086-1.504-3.89-2.674-5.413a12.16 12.16 0 0 0-4.28-3.536c-1.682-.835-3.593-1.252-5.744-1.262-2.057 0-3.894.427-5.523 1.283-1.63.855-3.07 2.159-4.313 3.9V0H0v45.247h8.426l.063-4.036c1.044 1.669 2.34 2.92 3.884 3.713 1.535.803 3.32 1.2 5.347 1.2 2.098-.01 4.02-.407 5.774-1.2 1.744-.803 3.258-1.96 4.542-3.505 1.284-1.522 2.266-3.39 2.976-5.58.71-2.2 1.055-4.704 1.065-7.5 0-2.524-.313-4.829-.919-6.904zm-9.836-.156c1.242 1.71 1.869 4.266 1.858 7.666-.01 1.982-.334 3.734-.971 5.226-.626 1.502-1.504 2.68-2.631 3.525-1.128.845-2.412 1.273-3.885 1.283-1.399-.01-2.662-.417-3.78-1.22-1.117-.793-1.994-1.91-2.652-3.317-.637-1.43-.981-3.077-.992-4.944 0-3.599.616-6.3 1.859-8.094 1.232-1.794 3.07-2.68 5.492-2.68 2.558 0 4.459.854 5.691 2.565zm22.752 23.958V0h-8.76v45.247zm33.57 0V12.12h-8.698v19.12c0 1.47-.26 2.774-.772 3.9a6 6 0 0 1-2.298 2.65c-1.013.646-2.255.98-3.738.99-1.858 0-3.247-.5-4.187-1.522-.93-1.033-1.4-2.577-1.4-4.673V12.12h-8.76v21.82c.021 2.442.501 4.57 1.452 6.395.95 1.815 2.266 3.233 3.957 4.245 1.681 1.022 3.644 1.533 5.858 1.554 2.287 0 4.302-.449 6.025-1.346 1.723-.907 3.143-2.294 4.291-4.172v4.642h8.291zm92.117-30.76a9.5 9.5 0 0 0-2.506 3.693c-.532 1.419-.804 2.983-.835 4.715h8.155c.125-1.001.417-1.867.856-2.597s1.075-1.304 1.911-1.71c.846-.408 1.921-.616 3.237-.616 1.743.01 3.101.313 4.093.907s1.493 1.44 1.503 2.524c.011.751-.146 1.377-.469 1.867-.335.48-.909.877-1.723 1.169-.825.302-1.953.552-3.404.74-1.775.24-3.425.49-4.981.772a24.7 24.7 0 0 0-4.198 1.168c-1.263.48-2.339 1.137-3.237 1.95-.897.825-1.597 1.878-2.077 3.161-.491 1.294-.731 2.9-.742 4.788 0 1.804.397 3.39 1.191 4.746.793 1.355 2.015 2.42 3.644 3.18 1.639.752 3.707 1.148 6.223 1.159 2.235-.021 4.198-.376 5.91-1.064 1.692-.689 3.08-1.617 4.135-2.775.031.511.104 1.033.188 1.565.104.51.209.99.345 1.398h8.154V24.282c.011-2.086-.24-3.953-.73-5.57-.491-1.616-1.306-2.983-2.402-4.099s-2.558-1.96-4.375-2.534c-1.807-.574-4.031-.866-6.651-.866-2.653.01-4.898.292-6.756.855-1.848.563-3.342 1.356-4.469 2.389zm10.953 16.492a41 41 0 0 0 2.705-.585 11.5 11.5 0 0 0 1.817-.605c.47-.23.856-.469 1.138-.761l-.063 3.64a6.87 6.87 0 0 1-1.086 3.599c-.689 1.084-1.629 1.95-2.809 2.607-1.179.647-2.537.991-4.051 1.002-1.378 0-2.433-.303-3.153-.918-.721-.605-1.086-1.533-1.086-2.785-.011-.928.188-1.742.605-2.389.418-.657 1.097-1.21 2.068-1.658.96-.449 2.276-.835 3.936-1.137zM115.402 12.12v33.127h8.761v-20.13q0-3.24 1.347-4.85c.898-1.075 2.224-1.617 3.978-1.617 1.284-.021 2.308.167 3.07.553.772.375 1.336 1.053 1.681 2.023.344.98.512 2.336.501 4.1v19.932h8.761V25.46c.01-1.356.261-2.566.731-3.63.48-1.064 1.138-1.898 1.973-2.514.846-.605 1.796-.918 2.892-.928q1.567.015 2.726.876c.772.584 1.368 1.377 1.806 2.389.428 1.022.648 2.2.648 3.536v20.068h8.562V22.3c-.011-1.564-.282-3.004-.836-4.339a10.7 10.7 0 0 0-2.328-3.504 10.9 10.9 0 0 0-3.582-2.347c-1.378-.563-2.913-.845-4.583-.855-2.089-.011-3.874.417-5.368 1.262-1.482.855-2.683 2.19-3.591 3.994-.836-1.282-1.671-2.305-2.527-3.066a7.9 7.9 0 0 0-2.872-1.68c-1.065-.333-2.339-.51-3.832-.5-1.462-.01-2.777.156-3.968.511-1.19.344-2.255.939-3.216 1.773-.94.845-1.785 1.992-2.527 3.432v-4.85h-8.228zm-15.6 6.853c1.013.532 1.827 1.325 2.485 2.399.637 1.074 1.003 2.43 1.055 4.078H89.788c.126-1.523.491-2.837 1.128-3.921.616-1.085 1.42-1.92 2.38-2.493a6.3 6.3 0 0 1 3.238-.866c1.18 0 2.245.26 3.268.793z" clip-rule="evenodd"/>
  </g>
  <defs>
    <clipPath id="a">
      <path fill="#fff" d="M0 0h230v63H0z"/>
    </clipPath>
  </defs>
</svg>