<svg width="259" height="39" viewBox="0 0 259 39" fill="none" xmlns="http://www.w3.org/2000/svg">
<path d="M35.6618 12.0437H30.1348V33.5477V39H35.6618H51.3501V33.5477H35.6618V12.0437Z" fill="black"/>
<path d="M86.9443 12.0437H86.0356V39H86.9443H91.5627H108.16V33.5477H91.5627V28.2519H108.16V22.7957H91.5627V17.4999H108.16V12.0437H91.5627H86.9443Z" fill="black"/>
<path d="M15.8629 12.0437H0V39H15.8629C23.9649 39 26.0639 30.1385 22.1795 25.5238C26.0639 20.9091 23.961 12.0476 15.8629 12.0476V12.0437ZM5.52702 17.4999H15.8589C19.4378 17.4999 19.4378 22.7996 15.8589 22.7996H5.52702V17.4999ZM15.8629 33.5477H5.52702V28.248H15.8589C19.4378 28.248 19.4378 33.5477 15.8589 33.5477H15.8629Z" fill="black"/>
<path d="M74.557 26.1775C74.557 35.9079 59.7614 35.9079 59.7614 26.1775V12.0437H54.2344V26.1736C54.2344 43.1764 80.084 43.1764 80.084 26.1736V12.0437H74.557V26.1736V26.1775Z" fill="black"/>
<path d="M231.674 12.0437H223.858L237.519 25.5238L223.858 39H231.674L241.427 29.3792L251.184 39H259L231.674 12.0437Z" fill="black"/>
<path d="M259 12.0437H251.183L245.335 17.8131L249.247 21.6685L259 12.0437Z" fill="black"/>
<path d="M206.658 12.0437H206.618H198.445H198.401L185.264 32.5652L174.278 15.4098L164.557 0L158.466 9.59735L148.71 26.017L136.414 5.28794L115.024 39H123.237L136.414 18.4236L148.71 38.9256L164.505 12.983L181.158 38.9804L181.142 39H181.17H189.359H189.387L189.371 38.9804L202.524 18.4393L215.641 39H223.858L206.658 12.0437Z" fill="black"/>
</svg>
