<svg xmlns="http://www.w3.org/2000/svg" viewBox="200.26 52.09 549.74 55.59">
    <path d="M603.368 53.196h-25.07l-19.61 53.205h50.342l6.51-17.681h-25.28zM529.475 67.134h29.395l5.174-13.938h-53.74l-19.58 53.205h54.331l5.28-14.32h-29.997l2.196-5.92h27.992l4.773-13.098h-27.963zM638.434 53.282l-19.533 53.157h25.777l19.571-53.196zM728.453 53.282 715.02 89.76c.181-3.676.955-18.197 1.365-26.57.182-3.446-.563-6.071-2.205-7.819a7.1 7.1 0 0 0-4.688-2.129h-29.939l-19.6 53.206h21.767l13.881-37.682-1.642 37.682h36.45L750 53.243ZM273.798 53.282 254.97 81.856s1.193-14.95 1.499-18.55c.22-2.74-.115-10.024-6.788-10.024h-29.844l-19.58 53.195h23.351l14.187-38.483-2.988 38.483h20.736l25.452-37.806-13.89 37.806h23.513L310.2 53.282zM325.046 53.282l-19.6 53.195h25.776l19.572-53.195zM471.257 53.282l-7.103 19.16H451.19l7.055-19.16H433.69l-19.533 53.205h24.497l6.683-18.015h12.994l-6.683 18.015h24.526l19.571-53.244zM386.671 53.769c-15.609 3.198-36.756 14.664-36.536 35.59.134 12.068 14.712 18.77 31.429 18.302A134.6 134.6 0 0 0 401 105.494l6.206-16.115c-8.21 1.298-16.096 3.265-22.283.792-11.15-4.458-4.286-16.058 3.6-19.657a31.5 31.5 0 0 1 13.88-2.979c2.359 0 8.116.143 10.35 5.232l7.8-18.693c-13.424-3.341-26.894-1.766-33.883-.305" style="fill:#27509b;fill-opacity:1;stroke-width:.954696"></path>
</svg>