<svg viewBox="0 0 142 36" fill="none" xmlns="http://www.w3.org/2000/svg">
    <path d="M99.0435 11.8335C95.6714 11.8335 92.9054 14.5475 92.9054 17.5195C92.9054 21.2342 95.6714 23.9492 99.0435 23.9492C102.416 23.9492 105.182 21.2342 105.182 17.5195C105.182 14.5475 102.416 11.8335 99.0435 11.8335Z" fill="black"></path>
    <path d="M0 0.5V35.5H141.842V0.5H0ZM12.895 20.7899V28.9059H6.70507V7.0941H24.7482L22.8728 12.4201H12.895V15.7177H21.449L19.5737 20.7899H12.895ZM36.9229 28.9059L35.5118 25.1017H27.731L26.2322 28.9059H20.2379L28.5952 7.0941H34.7608L42.9446 28.9059H36.9229ZM58.8003 14.3467C57.5109 12.804 55.7709 11.9749 53.8405 11.9749C50.3817 11.9749 48.0462 14.6036 48.0462 17.9469C48.0462 21.3465 50.4123 23.8046 53.9272 23.8046C55.7709 23.8046 57.5098 22.9193 58.7992 21.5191V28.2339C56.9937 28.806 55.5678 29.2336 53.8109 29.2336C50.7847 29.2336 47.9012 28.0914 45.6535 26.0619C43.262 23.919 42.1661 21.1176 42.1661 17.9189C42.1661 14.975 43.2895 12.1476 45.3637 10.0328C47.4961 7.8618 50.5826 6.54693 53.6374 6.54693C55.4525 6.54693 57.2518 6.94638 58.7992 7.63294V14.3467H58.8003ZM76.0786 11.9135H71.4362V28.9069H66.0205V11.9135H61.121V7.0941H76.0786V11.9135ZM84.5893 28.9059H79.1736V7.0941H84.5893V28.9059ZM99.0434 29.3761C92.0697 29.3761 87.0274 24.462 87.0274 17.4903C87.0274 10.9752 92.79 6.40338 99.0434 6.40338C105.296 6.40338 111.059 10.9752 111.059 17.4903C111.059 24.4609 106.017 29.3761 99.0434 29.3761ZM135.137 28.9059H129.441L119.095 15.4639H118.889V28.9059H113.473V7.0941H119.038L129.383 20.2823H129.463V7.0941H135.137V28.9059Z" fill="black"></path>
    <path d="M31.6215 13.687L29.2859 20.5349H33.9834L31.6786 13.687H31.6215Z" fill="black"></path>
</svg>