<svg width="521" height="99" viewBox="0 0 521 99" fill="none" xmlns="http://www.w3.org/2000/svg">
<path d="M18.26 0C19.205 0 20.06 0.385 20.68 1.005C21.3 1.625 21.685 2.48 21.685 3.425V92.79C21.685 93.735 21.3 94.59 20.68 95.21C20.06 95.83 19.205 96.215 18.26 96.215H3.425C2.52 96.215 1.695 95.86 1.08 95.285C0.415 94.66 0 93.775 0 92.79V3.425C0 2.485 0.38 1.635 0.99 1.015C1.6 0.395 2.47 0 3.425 0H18.26Z" fill="black"/>
<path d="M435.15 39.01C431.035 36.33 421.635 34.38 415 34.245C407.58 34.1 398.705 36.725 398.705 36.725C398.705 36.725 398.755 31.585 398.945 26.665C399.24 18.53 411.105 16.725 417.17 16.785C423.305 16.845 430.21 18.625 434.34 19.88C436.26 20.47 438.2 19.135 438.365 17.135L439.18 7.15001C439.265 5.79501 438.495 4.50501 437.215 3.99001C431.175 1.57501 423.765 0.360014 415.84 0.280014C411.56 0.240014 403.715 -0.269986 395.76 3.00501C389.885 5.44501 380.545 11.56 380.435 22.765C380.325 33.685 380.255 41.105 380.155 50.88C380.03 63.295 380.055 60.87 379.96 70.79C379.905 76.285 382.23 86.655 388.46 91.425C396.465 97.57 403.88 98.145 411.3 98.215C419.365 98.295 424.93 98.205 431.745 94.635C440.425 90.08 444.08 81.2 444.39 71.64C444.665 65.29 444.48 62.505 444.175 57.295C443.94 52.37 444.725 45.24 435.15 39.01ZM423.565 77.43C421.18 80.545 415.75 81.205 411.61 81.165C407.4 81.125 403.34 80.51 400.66 77.205C397.91 73.965 398.445 70.12 398.5 64.98C398.565 58.63 398.6 54.705 398.6 54.705C398.6 54.705 405.695 51.705 412.33 51.985C416.255 52.165 420.675 52.21 423.36 55.235C426.045 58.19 426.23 60.76 426.175 66.325C426.125 71.32 426.025 74.315 423.565 77.43Z" fill="black"/>
<path d="M369.055 62.2601C369.1 57.6951 366.755 49.4651 358.645 46.7401C356.655 46.0801 355.515 45.7101 354.59 45.7001C356.88 44.8651 359.105 43.6751 362.13 40.8501C365.085 38.0251 366.555 33.5451 366.61 27.9051C366.65 23.9101 366.625 26.4801 366.655 23.2651C366.735 15.2001 363.235 8.17507 356.21 4.25007C350.675 1.20007 343.05 0.125074 336.125 0.0550743C321.995 -0.0849257 312.11 3.67007 307.945 6.12507C306.94 6.75507 306.36 7.82007 306.42 9.03507L307.105 19.1051C307.225 21.2451 309.425 22.6251 311.43 21.7901C316.16 19.8401 324.25 16.9951 331.96 16.9251C335.67 16.8901 341.02 17.0851 343.72 18.2551C346.775 19.5001 348.675 22.1601 348.65 24.9401C348.69 28.0101 348.695 27.5101 348.675 29.4351C348.635 33.6451 347.125 34.6301 345.755 35.8301C343.81 37.5251 340.24 37.9901 335.95 38.4451C333.235 38.7751 326.665 39.1401 321.025 39.2251C319.31 39.2801 317.94 40.6201 317.925 42.3351L317.755 52.4651C317.74 54.1801 319.08 55.6201 320.865 55.6351C325.79 55.6851 332.495 55.8951 337.485 56.4401C344.255 57.2201 350.09 59.1351 350.035 64.7701C349.98 70.3351 350.06 62.2701 349.975 70.6201C349.89 78.9701 342.6 80.1101 331.755 80.0001C324.69 79.9301 316.585 76.7801 311.825 74.5951C309.835 73.7201 307.54 75.0501 307.375 77.1901L306.485 87.9551C306.4 89.0951 306.96 90.2451 307.885 90.8951C311.36 93.1401 320.445 98.0851 333.29 98.2101C342.495 98.3001 354.075 96.3451 360.185 91.9801C362.34 90.4301 368.825 84.4301 368.915 75.2951C368.96 70.7301 368.925 74.3651 368.98 68.5851C369.035 63.0901 369.005 66.2301 369.045 62.2351L369.055 62.2601Z" fill="black"/>
<path d="M286.93 25.165C280.755 21.89 273.635 20.25 265.64 20.175C254.51 20.065 243.72 21.385 237.34 24.39C236.195 24.95 235.465 26.155 235.525 27.44L235.99 38.005C236.11 40.145 238.24 41.595 240.245 40.9C245.475 38.955 254.635 36.405 263.34 36.345C269.19 36.33 272.185 36.93 274.24 38.095C276.3 39.255 277.14 40.55 277.11 43.545C277.085 46.045 277.045 50.11 277.045 50.11C277.045 50.11 266.92 49.295 261.995 49.535C255.285 49.895 248.925 50.62 241.895 54.115C236.085 56.985 231.405 61.15 231.315 70.14C231.275 74.205 231.265 75.35 231.22 79.63C231.16 85.91 234.96 90.945 240.215 93.635C245.965 96.545 252.445 98.11 264.435 98.23C280.845 98.395 291.12 91.645 294.43 89.035C295.22 88.47 295.66 87.55 295.67 86.55L296.1 43.235C296.115 34.385 293.105 28.36 286.93 25.16V25.165ZM273.84 78.63C270.32 81.02 265.035 81.395 260.895 81.43C256.685 81.46 251.77 80.41 249.935 78.395C248.31 76.665 248.96 76.175 248.985 73.675C249.02 70.035 250.62 67.27 254.345 65.88C258.07 64.42 263.42 64.47 266.775 64.435C272.84 64.35 277.115 65.18 277.115 65.18L277.08 68.46C277.015 74.88 277.36 76.24 273.84 78.635V78.63Z" fill="black"/>
<path d="M152.88 51.09C143.755 49.93 135.28 48.345 132.94 46.965C130.6 45.515 130.935 40.665 132.375 38.965C134.47 36.56 143.74 37.15 149.085 37.775C155.855 38.555 161.195 39.965 164.54 41.07C166.53 41.73 168.545 40.395 168.78 38.33L170.025 28.065C170.185 26.57 169.34 25.13 167.92 24.62C160.525 21.905 154.975 20.28 142.915 20.16C137.635 20.11 131.565 20.62 126.05 22.56C117.24 25.615 114.685 31.725 114.06 37.14C113.75 39.85 113.52 41.2 113.485 44.7C113.425 50.55 114.595 55.275 117.845 58.375C121.095 61.545 128.28 64.045 139.255 65.65C149.02 67.03 151.29 68.195 152.99 69.425C155.33 71.16 155.055 77.01 153.47 78.35C150.88 80.535 144.88 80.975 137.605 80.405C130.33 79.835 122.645 77.545 118.095 76C116.035 75.265 113.88 76.67 113.715 78.81L112.895 89.435C112.81 90.72 113.44 91.94 114.575 92.52C120.325 95.645 132.93 98.125 142.85 98.225C153.77 98.335 162.35 96.205 167.1 92.185C172.495 87.67 173.195 81.97 173.27 74.55C173.325 68.915 173.465 61.99 169.865 58.175C166.33 54.645 162.57 52.32 152.88 51.085V51.09Z" fill="black"/>
<path d="M218.505 79.03C212.74 81.105 209.015 81.105 206.635 78.88C205.86 78.085 205.515 76.8 205.545 73.73L205.945 40.85L217.935 40.97C219.79 40.99 221.305 39.505 221.32 37.65L221.5 26.66C221.52 24.875 220.105 23.365 218.25 23.345L205.97 23.225L205.96 9.11498C205.98 7.32998 204.495 5.81998 202.71 5.79998L188.3 5.65498C186.515 5.63498 185.005 7.11998 184.965 10.76L185.27 79.16C185.24 82.015 184.605 88.5 189.415 92.76C194.225 97.02 200.92 98.445 207.695 98.215C213.055 98.035 216.685 97.555 220.045 96.39C221.565 95.86 222.775 94.705 222.72 93.06L222.33 82.21C222.205 80.21 220.35 78.37 218.51 79.03H218.505Z" fill="black"/>
<path d="M80.3349 92.7C80.3149 94.485 81.7299 96.14 83.5849 96.16L97.8949 96.135C99.6799 96.155 101.195 94.6 101.21 92.74" fill="black"/>
<path d="M95.135 28.3651C90.52 24.3201 83.87 22.6201 78.2 21.3201C73.665 20.2801 60.755 20.3651 54.715 22.0151C44.08 24.9201 38.595 28.4201 36.58 30.2551C35.93 30.8901 35.495 31.7451 35.485 32.6701L35.47 92.6201C35.47 94.5101 37 96.0451 38.895 96.0451H52.89C54.78 96.0451 56.315 94.5151 56.315 92.6201C56.315 92.6201 56.28 46.6301 56.28 44.8651C56.28 39.7251 62.485 38.2851 69.05 38.2851C74.05 38.2851 80.33 39.7251 80.33 45.1051C80.33 46.9151 80.305 92.6751 80.305 92.6751C80.305 94.5651 81.84 96.1001 83.73 96.1001H97.82C99.71 96.1001 101.245 94.5701 101.245 92.6751C101.245 92.6751 101.315 45.6151 101.315 42.6551C101.315 34.5801 99.36 32.0551 95.15 28.3651H95.135Z" fill="black"/>
<path d="M520.17 29.3049C520.305 15.3199 515.445 9.84493 510.705 6.51493C505.005 2.46993 495.825 0.159932 487.805 0.0549316C479.805 0.154932 471.11 2.46993 465.41 6.51493C460.67 9.84493 455.81 15.3199 455.945 29.3049C456.02 36.9499 456.02 61.3849 455.945 68.9899C455.81 82.9749 460.67 88.4499 465.41 91.7799C471.11 95.8249 480.29 98.1349 488.31 98.2399C496.31 98.1399 505.005 95.8249 510.705 91.7799C515.445 88.4499 520.305 82.9749 520.17 68.9899C520.095 61.3799 520.095 36.9449 520.17 29.3049ZM498.355 78.5349C496.23 80.5299 491.425 81.4799 488.06 81.5349C484.695 81.4799 479.89 80.5249 477.76 78.5349C475.395 76.2999 475.205 74.2299 475.285 66.1649C475.325 61.9399 475.325 36.3049 475.285 32.1249C475.205 24.0599 475.395 21.9899 477.76 19.7549C479.885 17.7599 484.69 16.8099 488.055 16.7549C491.42 16.8099 496.225 17.7649 498.355 19.7549C500.72 21.9899 500.91 24.0599 500.83 32.1249C500.79 36.2999 500.79 61.9399 500.83 66.1649C500.91 74.2299 500.72 76.2999 498.355 78.5349Z" fill="black"/>
</svg>
