<svg xmlns="http://www.w3.org/2000/svg" xmlns:xlink="http://www.w3.org/1999/xlink" viewBox="0 0 103 26"><defs><path id="a" d="M0 .491h101.798v19.926H0z"/></defs><g fill="none" fill-rule="evenodd" transform="translate(0 2.667)"><mask id="b" fill="#fff"><use xlink:href="#a"/></mask><path fill="#000" d="M34.797 14.683a5.427 5.427 0 01-3.801 1.491c-1.458 0-2.693-.488-3.775-1.491-1.06-.982-1.596-2.41-1.596-4.242 0-1.833.537-3.26 1.596-4.243 1.082-1.003 2.317-1.49 3.775-1.49 1.455 0 2.734.501 3.8 1.49 1.06.982 1.596 2.409 1.596 4.243 0 1.833-.537 3.26-1.595 4.242zm62.911-2.39l-.108.374c-.273.943-.816 1.771-1.615 2.46-.783.678-1.859 1.021-3.198 1.021-1.489 0-2.726-.498-3.78-1.523-1.039-1.01-1.564-2.409-1.564-4.158 0-1.834.533-3.267 1.585-4.258 1.073-1.01 2.285-1.502 3.707-1.502 1.356 0 2.429.33 3.186.983.768.66 1.28 1.48 1.519 2.433l.1.397 4.123-1.295-.086-.35c-.435-1.75-1.411-3.265-2.901-4.506C97.178 1.122 95.179.49 92.735.49c-2.661 0-4.982.934-6.899 2.778-1.458 1.403-2.367 3.141-2.72 5.18h-7.213v-3.43h7.971V.878h-31.07v11.21L45.72.878h-5.08v7.168c-.4-1.888-1.282-3.502-2.655-4.806C36.059 1.416 33.707.49 30.996.49c-2.696 0-5.038.925-6.962 2.75-1.374 1.303-2.255 2.915-2.655 4.804V.879h-5.544l-5.163 12.647L5.385.879H0v19.15h4.212V8.798l4.67 11.23h3.513l4.668-11.32v11.32h4.316v-7.153c.4 1.88 1.281 3.488 2.655 4.79 1.924 1.825 4.266 2.75 6.962 2.75 2.712 0 5.063-.925 6.988-2.75 1.373-1.304 2.256-2.913 2.655-4.792v7.154h4.368V7.918l7.79 12.11h4.375V5.045h4.985v14.983h4.394V5.045h4.984v14.983h12.34v-4.14h-7.972v-3.482h7.199c.337 2.083 1.236 3.848 2.695 5.258 1.89 1.826 4.24 2.753 6.99 2.753 1.273 0 2.462-.2 3.534-.594 1.075-.396 1.982-.928 2.694-1.582a9.462 9.462 0 001.723-2.082 8.597 8.597 0 00.968-2.279l.092-.357-4.09-1.23z" mask="url(#b)"/></g></svg>
