<svg xmlns="http://www.w3.org/2000/svg" fill="none" viewBox="0 0 209 24" aria-label="Salomon" role="img">
<path fill="black" d="M37.912.218 25.714 23.802h8.152l1.953-4.312h9.063l.776 4.312h8.153L49.099.218zm-.069 14.758 5.02-9.904h.069l1.517 9.904zM67.29.218h-7.851l-3.535 23.584h19.473l.81-5.66H64.56zm66.105 0-7.545 17.69h-.068l-2.09-17.69h-10.008l-8.724 23.584h7.681l5.726-17.017h.068l1.819 17.017h9.3l7.077-16.611h.065l1.18 16.61h7.85L143.673.219zm67.867 0L198.601 17.5h-.069L191.055.218H180.44l-3.536 23.584h7.477l2.291-16.913h.068l7.077 16.913H204.8L208.339.218zm-94.86 8.386c.673-3.639-.338-5.829-2.459-7.11-2.158-1.279-5.427-1.48-9.368-1.48s-7.312.201-9.94 1.482c-2.63 1.28-4.449 3.47-5.121 7.11l-1.248 6.804c-.673 3.639.338 5.793 2.492 7.074S86.181 24 90.126 24s7.38-.237 9.973-1.517 4.38-3.438 5.056-7.074zm-7.987.64-1.111 5.694c-.74 3.74-2.323 4.11-6.401 4.11s-5.56-.338-4.82-4.11l1.112-5.693c.741-3.74 2.46-4.078 6.402-4.078 4.178 0 5.523.37 4.818 4.078m75.354-7.75c-2.158-1.28-5.424-1.482-9.368-1.482s-7.311.201-9.94 1.482-4.449 3.47-5.121 7.11l-1.248 6.804c-.673 3.639.338 5.793 2.492 7.074S156.008 24 159.952 24s7.38-.237 9.973-1.517 4.38-3.438 5.056-7.074l1.247-6.805c.673-3.639-.337-5.829-2.459-7.11m-5.528 7.75-1.111 5.693c-.741 3.74-2.323 4.11-6.401 4.11s-5.56-.338-4.819-4.11l1.111-5.693c.741-3.74 2.46-4.078 6.402-4.078 4.178 0 5.527.37 4.818 4.078M23.627 13.19 12.19 7.554c-1.856-.91-1.99-1.28-1.823-2.125.1-.504.403-.777 1.654-.91.776-.068 2.225-.1 3.645-.1.878 0 1.989.035 2.564.067 2.057.134 2.294.44 2.024 1.788l-.406 2.024h7.321l.744-3.71C28.521 1.516 27.443 0 23.458 0H10.266C5.408-.003 4.125.874 3.384 4.585l-.439 2.193c-.439 2.226.169 3.51 3.51 5.164l8.467 4.149c2.463 1.215 2.665 1.517 2.496 2.326-.133.709-.406.91-1.622 1.011-.945.068-2.362.1-3.61.1-1.923 0-2.934-.032-3.746-.168-.978-.17-1.216-.608-1.079-1.284l.471-2.362H.82l-.676 3.38c-.676 3.375 1.01 4.893 5.397 4.893h13.225c4.725 0 5.836-1.348 6.58-4.959l.471-2.294c.338-1.722.069-2.43-2.193-3.542z"></path>
</svg>